<?xml version="1.0" encoding="utf-8"?>
<!-- Generator: Adobe Illustrator 16.0.4, SVG Export Plug-In . SVG Version: 6.00 Build 0)  -->
<!DOCTYPE svg PUBLIC "-//W3C//DTD SVG 1.1//EN" "http://www.w3.org/Graphics/SVG/1.1/DTD/svg11.dtd">
<svg version="1.1" id="Layer_1" xmlns="http://www.w3.org/2000/svg" xmlns:xlink="http://www.w3.org/1999/xlink" x="0px" y="0px"
	 width="153.846px" height="155.51px" viewBox="0 0 153.846 155.51" enable-background="new 0 0 153.846 155.51"
	 xml:space="preserve">
<g>
	<g>
		<circle fill="#BE202E" cx="80.716" cy="82.604" r="44.413"/>
	</g>
	<path id="Facebook" fill="#FFFFFF" d="M74.834,68.2c0,1.185,0,6.475,0,6.475h-4.742v7.917h4.742v23.526h9.745V82.591h6.538
		c0,0,0.612-3.796,0.908-7.947c-0.851,0-7.41,0-7.41,0s0-4.606,0-5.413c0-0.809,1.062-1.897,2.113-1.897c1.048,0,3.26,0,5.309,0
		c0-1.078,0-4.803,0-8.242c-2.735,0-5.847,0-7.219,0C74.594,59.092,74.834,67.017,74.834,68.2z"/>
</g>
<rect x="390.897" y="-12.436" fill="none" width="142" height="67"/>
<text transform="matrix(1 0 0 1 390.8975 -3.916)" fill="#FFF200" font-family="'MyriadPro-Regular'" font-size="12">#be1e2d</text>
</svg>
