<?xml version="1.0" encoding="utf-8"?>
<!-- Generator: Adobe Illustrator 16.0.4, SVG Export Plug-In . SVG Version: 6.00 Build 0)  -->
<!DOCTYPE svg PUBLIC "-//W3C//DTD SVG 1.1//EN" "http://www.w3.org/Graphics/SVG/1.1/DTD/svg11.dtd">
<svg version="1.1" id="Layer_1" xmlns="http://www.w3.org/2000/svg" xmlns:xlink="http://www.w3.org/1999/xlink" x="0px" y="0px"
	 width="153.846px" height="155.51px" viewBox="0 0 153.846 155.51" enable-background="new 0 0 153.846 155.51"
	 xml:space="preserve">
<g>
	<g>
		<circle fill="#BE202E" cx="76.923" cy="79.212" r="44.414"/>
	</g>
	<g id="_x37_0kZYJ_1_">
		<g>
			<path fill="#FFFFFF" d="M73.027,90.163c-0.164,0.789-0.282,1.456-0.443,2.113c-0.576,2.354-1.126,4.714-1.76,7.052
				c-0.679,2.509-1.723,4.87-3.142,7.055c-0.916,1.409-2.013,2.66-3.323,3.717c-0.134,0.107-0.298,0.178-0.502,0.297
				c-0.093-0.492-0.201-0.899-0.243-1.313c-0.303-3.004-0.302-6.012,0.014-9.011c0.15-1.427,0.402-2.848,0.692-4.254
				c0.501-2.43,1.031-4.854,1.618-7.265c0.509-2.088,1.131-4.147,1.67-6.229c0.3-1.157,0.538-2.331,0.785-3.501
				c0.025-0.118-0.068-0.271-0.129-0.396c-1.303-2.694-1.404-5.47-0.662-8.339c0.445-1.723,1.128-3.297,2.353-4.599
				c1.975-2.101,4.688-2.436,7.1-0.875c1.021,0.66,1.562,1.662,1.7,2.837c0.211,1.808-0.156,3.558-0.678,5.282
				c-0.559,1.845-1.144,3.683-1.638,5.545c-0.357,1.347-0.667,2.718-0.851,4.097c-0.413,3.087,1.038,5.094,4.281,5.554
				c3.903,0.555,6.574-1.324,8.681-4.347c1.363-1.954,2.226-4.136,2.801-6.424c0.852-3.385,1.05-6.825,0.45-10.268
				c-0.387-2.223-1.114-4.354-2.624-6.102c-1.82-2.109-4.105-3.506-6.782-4.288c-2.262-0.661-4.56-0.74-6.853-0.358
				c-3.208,0.535-6.102,1.841-8.647,3.887c-1.988,1.599-3.595,3.512-4.729,5.802c-1.173,2.367-1.642,4.871-1.606,7.524
				c0.031,2.273,0.956,4.155,2.092,6.005c1.162,1.891,0.77,3.735-0.218,5.539c-0.072,0.132-0.382,0.24-0.541,0.2
				c-3.434-0.876-5.912-2.853-7.094-6.273c-0.988-2.857-1.117-5.79-0.818-8.781c0.21-2.097,0.744-4.082,1.573-6.006
				c1.189-2.758,2.938-5.111,5.129-7.148c2.105-1.958,4.502-3.479,7.15-4.574c2.181-0.901,4.445-1.545,6.826-1.667
				c1.363-0.069,2.73-0.223,4.087-0.163c2.991,0.13,5.919,0.612,8.752,1.675c3.439,1.29,6.419,3.196,8.787,6.021
				c1.579,1.881,2.662,4.017,3.359,6.373c0.805,2.718,0.848,5.495,0.75,8.283c-0.12,3.42-0.911,6.684-2.276,9.828
				c-1.233,2.84-2.92,5.331-5.223,7.403c-1.803,1.622-3.87,2.813-6.197,3.436c-2.67,0.713-5.422,0.958-8.074-0.003
				c-1.319-0.478-2.499-1.351-3.724-2.074C74.296,91.068,73.729,90.64,73.027,90.163z"/>
		</g>
	</g>
</g>
</svg>
