<?xml version="1.0" encoding="utf-8"?>
<!-- Generator: Adobe Illustrator 18.1.1, SVG Export Plug-In . SVG Version: 6.00 Build 0)  -->
<!DOCTYPE svg PUBLIC "-//W3C//DTD SVG 1.1//EN" "http://www.w3.org/Graphics/SVG/1.1/DTD/svg11.dtd">
<svg version="1.1" id="Layer_1" xmlns="http://www.w3.org/2000/svg" xmlns:xlink="http://www.w3.org/1999/xlink" x="0px" y="0px"
	 width="261.4px" height="230.4px" viewBox="0 0 261.4 230.4" enable-background="new 0 0 261.4 230.4" xml:space="preserve">
<g>
	<path fill="#C1272D" d="M135.7,186.3c0,0,48.8,4.2,55.7-11.3c9.4-21-19.3-54.5-21.1-56.4c-0.1-0.1-0.1-0.2-0.2-0.2
		c-0.5-0.7-3.1-3.8-7.6-8.6c-20.5-21.6-47.2-18-63.7,1.9c-5.2,6.3-12.1,12.9-18.5,21.1c-14.4,18.4-16.5,26.9-15.4,32.8
		c0.7,3.7,1.2,7.7,6.2,11.3c9.1,6.7,30.1,15.7,59.5,9.7c-4.7,12.9-33.2,7.6-57.8-0.6c-21.6-7.2-20.6-21.4-12.5-38.8
		c5.6-12.2,11.4-20.4,24.4-35.1c3.6-4.1,9.6-8.9,15.6-14.2c17.1-14.8,42.5-14.9,59.6-0.1c12.9,11.2,26.2,24.2,31.8,34.7
		c7.4,13.8,11.4,33.2,10.3,42.2c-0.8,6.7-2.9,14-13.2,16.1c-7.5,1.6-27.6,1.9-42.2,0.6C138.1,190.5,138.3,189.2,135.7,186.3z"/>
	<path fill="#C1272D" d="M192.8,122.7c0,0-3.8-11.2-12.5-18.5s17.1-28.3,17.1-28.3s7-8.9,25.8,9.1c0,0,9.6,7.2-10.1,26l-7.2,5.6
		c0,0,12.1-18.2,12.1-23.4c0-3.9-7-9.6-10.4-12.1c-1.3-0.9-3-1-4.4-0.3c-2.5,1.3-8.6,6.9-14,13.8c-0.6,0.8-1,1.8-0.9,2.8
		c0.1,2.2,0.7,6.4,3,11.9C194.8,117.6,192.8,122.7,192.8,122.7z"/>
	<path fill="#C1272D" d="M164,92.1c0,0-14.3-8.1-23.7-9.5c-8.8-1.3,9.9-36.9,9.9-36.9s4.8-9.3,22.4,1.4s11.2,20.5,11.2,20.5
		s-4.8,7.3-12,14.6c0,0,10.6-19.2,5.4-23.9c-3.5-3.2-11.4-8.2-13.9-9.7c-1.6-0.9-3.7-0.9-5.1,0.3c-1.9,1.6-8,7.4-11.2,14.3
		c-0.9,2-2.9,7.8-2.5,10c0.2,1.1,0.5,2.3,1.1,3.5c0.7,1.5,5.2,5.7,9.9,7.9C160.7,87.1,161,88,164,92.1z"/>
	<path fill="#C1272D" d="M121.4,80.1c0,0-12.3-0.2-22.6,5.8S77,59.2,77,59.2s-6.3-10,18-22.2c0,0,10.4-6.9,22,19l3,9.1
		c0,0-14.2-20.1-19.3-21.9c-5.1-1.9-16.5,9.3-16.5,9.3s-3.5,3.9,5.4,17.7c0,0,2.4,7.7,11.7,7.1S121.4,80.1,121.4,80.1z"/>
	<path fill="#C1272D" d="M84.6,102.7c0,0-13.7,9.2-19.1,17c-5.1,7.3-28.6-25.4-28.6-25.4s-6.2-8.5,11.2-19.4S71.4,74,71.4,74
		s4.4,7.5,7.7,17.3c0,0-12.4-18.7-18.9-16.2c-4.5,1.7-11.8,8.8-14.2,10.4c-1.6,1-2.4,2.9-2,4.7c0.5,2.4,5.4,9.5,10.1,15.4
		c1.4,1.7,3.2,3.1,5.3,3.8c1,0.3,2.3,0.6,3.6,0.6c1.7,0,5.6-0.3,9.7-3.6C77.5,102.8,79.6,103.5,84.6,102.7z"/>
	<path id="Twitter_2_" fill="#C1272D" d="M168.2,127.3c-2.7,1.2-5.5,2-8.5,2.3c3.1-1.8,5.4-4.7,6.5-8.2c-2.9,1.7-6,2.9-9.4,3.6
		c-2.7-2.9-6.5-4.7-10.8-4.7c-8.2,0-14.8,6.6-14.8,14.8c0,1.2,0.1,2.3,0.4,3.4c-12.3-0.6-23.2-6.5-30.5-15.5c-1.3,2.2-2,4.7-2,7.4
		c0,5.1,2.6,9.7,6.6,12.3c-2.4-0.1-4.7-0.7-6.7-1.9c0,0.1,0,0.1,0,0.2c0,7.2,5.1,13.2,11.9,14.5c-1.2,0.3-2.5,0.5-3.9,0.5
		c-1,0-1.9-0.1-2.8-0.3c1.9,5.9,7.3,10.2,13.8,10.3c-5.1,4-11.4,6.3-18.4,6.3c-1.2,0-2.4-0.1-3.5-0.2c6.5,4.2,14.3,6.6,22.7,6.6
		c27.2,0,42.1-22.6,42.1-42.1c0-0.6,0-1.3,0-1.9C163.7,132.9,166.2,130.3,168.2,127.3z"/>
</g>
</svg>
