<?xml version="1.0" encoding="utf-8"?>
<!-- Generator: Adobe Illustrator 18.1.1, SVG Export Plug-In . SVG Version: 6.00 Build 0)  -->
<!DOCTYPE svg PUBLIC "-//W3C//DTD SVG 1.1//EN" "http://www.w3.org/Graphics/SVG/1.1/DTD/svg11.dtd">
<svg version="1.1" id="Layer_1" xmlns="http://www.w3.org/2000/svg" xmlns:xlink="http://www.w3.org/1999/xlink" x="0px" y="0px"
	 width="226.1px" height="196.6px" viewBox="0 0 226.1 196.6" enable-background="new 0 0 226.1 196.6" xml:space="preserve">
<g>
	<g>
		<path fill="#C1272D" d="M93,101.7c0,0,29.4-32.2,51.8-24.7c15.5,5.2,15.1,18.2,9.3,30.7c-4.1,8.7-7.6,15.5-17.5,25.2
			c-9.1,8.9-32,27.7-32,27.7s-36-25.8-44.8-42.3c-4.9-9.2-5.2-18.3-4.6-24.6c0.6-5.5,3.8-10.4,8.6-13.2C72.2,75.5,90,68,104,85.3
			c0,0-31-8.3-37.6,6.5c-7,15.6,11.7,35.3,11.7,35.3s7.5,11.2,26.8,21.2c0,0,15.2-10.3,31-30.6c10.3-13.2,10.5-21.5,9.3-25.7
			c-0.6-2.2-2.4-3.8-4.6-4.2C134.9,86.9,119,84,93,101.7z"/>
		<path fill="#C1272D" d="M162.8,90.2c0,0-1.2-8.4-6.4-14.7c-5.2-6.3,15.8-17.7,15.8-17.7s6.1-5.4,17,9.8c0,0,5.8,6.3-10.5,17
			l-5.8,3c0,0,9.5-9.5,10.2-13.2c0.7-3.7-5.1-9.7-5.1-9.7s-3-1.9-11.4,5.6c0,0-2.8,2.3-1.4,8.6C166.6,85.3,162.8,90.2,162.8,90.2z"
			/>
		<path fill="#C1272D" d="M144,71.2c0,0-11.8-1-18.3,0.8c-6.1,1.7-4.5-27.1-4.5-27.1s0.4-7.5,15-5.7c14.6,1.8,13.3,10.1,13.3,10.1
			s-1,6.2-3.5,13.1c0,0-0.2-13-5-14.5c-3.3-1-7-1.5-9.1-1.7c-1.3-0.1-2.6,0.5-3.3,1.7c-0.8,1.6-1.6,4.5-1.7,9.9
			c0,1.6,0.4,3.2,1.3,4.5c0.4,0.7,1,1.3,1.7,2c0.9,0.8,3.2,2.3,7,2.4C141.4,66.8,140.8,69.4,144,71.2z"/>
		<path fill="#C1272D" d="M99.4,72.8c0,0-7.2-5.2-15.7-5.8s-1.9-24.7-1.9-24.7s0.4-8.4,19.7-5.7c0,0,9,0.2,5.2,20.2l-1.9,6.6
			c0,0-0.2-14.1-2.5-17.2c-2.2-3.2-11-3.2-11-3.2s-3.7,0.9-4.1,12.7c0,0-0.3,3.8,5.5,7.3C98.4,66.5,99.4,72.8,99.4,72.8z"/>
		<path fill="#C1272D" d="M69.2,69.8c0,0-10.7,5.1-15.4,10c-4.4,4.6-17.6-21-17.6-21s-3.5-6.7,10-12.6s16.6,1.9,16.6,1.9
			s2.3,5.8,3.6,13.1c0,0-6.8-11.1-11.7-10c-3.3,0.8-6.8,2.3-8.7,3.1c-1.2,0.6-2,1.8-1.9,3.1c0.1,1.8,0.9,4.7,3.6,9.4
			c0.8,1.4,2,2.6,3.4,3.2c0.7,0.3,1.6,0.6,2.5,0.8c1.2,0.2,4,0.4,7.3-1.5C64.7,67.4,65.5,69.9,69.2,69.8z"/>
	</g>
</g>
</svg>
