<?xml version="1.0" encoding="utf-8"?>
<!-- Generator: Adobe Illustrator 16.0.4, SVG Export Plug-In . SVG Version: 6.00 Build 0)  -->
<!DOCTYPE svg PUBLIC "-//W3C//DTD SVG 1.1//EN" "http://www.w3.org/Graphics/SVG/1.1/DTD/svg11.dtd">
<svg version="1.1" id="Layer_1" xmlns="http://www.w3.org/2000/svg" xmlns:xlink="http://www.w3.org/1999/xlink" x="0px" y="0px"
	 width="153.846px" height="155.51px" viewBox="0 0 153.846 155.51" enable-background="new 0 0 153.846 155.51"
	 xml:space="preserve">
<g>
	<g>
		<circle fill="#BE202E" cx="81.181" cy="82.605" r="44.414"/>
	</g>
	<path id="Twitter_2_" fill="#FFFFFF" d="M109.918,67.228c-1.997,0.885-4.144,1.484-6.396,1.753
		c2.299-1.378,4.064-3.561,4.896-6.162c-2.151,1.276-4.534,2.203-7.071,2.702c-2.031-2.164-4.926-3.516-8.128-3.516
		c-6.15,0-11.137,4.986-11.137,11.136c0,0.873,0.099,1.723,0.288,2.538c-9.255-0.464-17.461-4.898-22.953-11.635
		c-0.959,1.645-1.508,3.557-1.508,5.599c0,3.863,1.966,7.271,4.954,9.269c-1.825-0.058-3.543-0.559-5.044-1.393
		c-0.001,0.046-0.001,0.093-0.001,0.14c0,5.396,3.839,9.896,8.933,10.919c-0.934,0.254-1.918,0.391-2.934,0.391
		c-0.718,0-1.415-0.07-2.095-0.201c1.417,4.424,5.529,7.645,10.402,7.734c-3.812,2.987-8.613,4.768-13.83,4.768
		c-0.899,0-1.785-0.053-2.656-0.156c4.928,3.159,10.781,5.003,17.07,5.003c20.483,0,31.685-16.969,31.685-31.685
		c0-0.482-0.011-0.963-0.032-1.441C106.538,71.422,108.425,69.461,109.918,67.228z"/>
</g>
</svg>
